{
  "asset": {
    "version": "2.0",
    "generator": "Sketchup glTF Exporter by Evan Prananta."
  },
  "scene": 0,
  "scenes": [
    {
      "nodes": [
        0
      ]
    }
  ],
  "samplers": [
    {
    }
  ],
  "nodes": [
    {
      "name": "root",
      "mesh": 0
    }
  ],
  "materials": [
    {
      "pbrMetallicRoughness": {
        "baseColorFactor": [
          0.6121,
          0.6121,
          0.6121,
          1.0
        ],
        "metallicFactor": 0.1,
        "roughnessFactor": 0.5
      },
      "name": "default material",
      "doubleSided": true
    },
    {
      "pbrMetallicRoughness": {
        "baseColorFactor": [
          1.0,
          0.0,
          0.0,
          1.0
        ],
        "metallicFactor": 0.1,
        "roughnessFactor": 0.9
      },
      "name": "Color A05",
      "doubleSided": true
    },
    {
      "pbrMetallicRoughness": {
        "baseColorFactor": [
          0.017,
          0.0152,
          0.0303,
          1.0
        ],
        "metallicFactor": 0.1,
        "roughnessFactor": 0.9
      },
      "name": "Chris_Shirt",
      "doubleSided": true
    },
    {
      "pbrMetallicRoughness": {
        "baseColorFactor": [
          0.005,
          0.0046,
          0.0046,
          1.0
        ],
        "metallicFactor": 0.1,
        "roughnessFactor": 0.9
      },
      "name": "Chris_Shoe",
      "doubleSided": true
    },
    {
      "pbrMetallicRoughness": {
        "baseColorFactor": [
          0.5356,
          0.3787,
          0.1734,
          1.0
        ],
        "metallicFactor": 0.1,
        "roughnessFactor": 0.9
      },
      "name": "Chris_Skin",
      "doubleSided": true
    },
    {
      "pbrMetallicRoughness": {
        "baseColorFactor": [
          0.2011,
          0.1835,
          0.1835,
          1.0
        ],
        "metallicFactor": 0.1,
        "roughnessFactor": 0.9
      },
      "name": "Chris_Shoe_Sole",
      "doubleSided": true
    },
    {
      "pbrMetallicRoughness": {
        "baseColorFactor": [
          0.06,
          0.0697,
          0.0658,
          1.0
        ],
        "metallicFactor": 0.1,
        "roughnessFactor": 0.9
      },
      "name": "Chris_Hair",
      "doubleSided": true
    },
    {
      "pbrMetallicRoughness": {
        "baseColorFactor": [
          0.1636,
          0.1275,
          0.0658,
          1.0
        ],
        "metallicFactor": 0.1,
        "roughnessFactor": 0.9
      },
      "name": "Chris_Pants",
      "doubleSided": true
    }
  ],
  "meshes": [
    {
      "primitives": [
        {
          "attributes": {
            "POSITION": 0,
            "NORMAL": 1
          },
          "indices": 2,
          "mode": 4,
          "material": 0
        },
        {
          "attributes": {
            "POSITION": 0,
            "NORMAL": 1
          },
          "indices": 3,
          "mode": 4,
          "material": 1
        },
        {
          "attributes": {
            "POSITION": 0,
            "NORMAL": 1
          },
          "indices": 4,
          "mode": 4,
          "material": 2
        },
        {
          "attributes": {
            "POSITION": 0,
            "NORMAL": 1
          },
          "indices": 5,
          "mode": 4,
          "material": 3
        },
        {
          "attributes": {
            "POSITION": 0,
            "NORMAL": 1
          },
          "indices": 6,
          "mode": 4,
          "material": 4
        },
        {
          "attributes": {
            "POSITION": 0,
            "NORMAL": 1
          },
          "indices": 7,
          "mode": 4,
          "material": 5
        },
        {
          "attributes": {
            "POSITION": 0,
            "NORMAL": 1
          },
          "indices": 8,
          "mode": 4,
          "material": 6
        },
        {
          "attributes": {
            "POSITION": 0,
            "NORMAL": 1
          },
          "indices": 9,
          "mode": 4,
          "material": 7
        }
      ]
    }
  ],
  "accessors": [
    {
      "bufferView": 0,
      "componentType": 5126,
      "count": 6889,
      "type": "VEC3",
      "min": [
        -26.207690740678586,
        -1.2468373460962084e-05,
        -51.775427689496674
      ],
      "max": [
        84.97230925932143,
        19.534681999467587,
        42.96457231050333
      ]
    },
    {
      "bufferView": 1,
      "componentType": 5126,
      "count": 6889,
      "type": "VEC3"
    },
    {
      "bufferView": 2,
      "componentType": 5123,
      "count": 5337,
      "type": "SCALAR"
    },
    {
      "bufferView": 2,
      "componentType": 5123,
      "count": 5880,
      "type": "SCALAR",
      "byteOffset": 10674
    },
    {
      "bufferView": 2,
      "componentType": 5123,
      "count": 2010,
      "type": "SCALAR",
      "byteOffset": 22434
    },
    {
      "bufferView": 2,
      "componentType": 5123,
      "count": 336,
      "type": "SCALAR",
      "byteOffset": 26454
    },
    {
      "bufferView": 2,
      "componentType": 5123,
      "count": 1824,
      "type": "SCALAR",
      "byteOffset": 27126
    },
    {
      "bufferView": 2,
      "componentType": 5123,
      "count": 336,
      "type": "SCALAR",
      "byteOffset": 30774
    },
    {
      "bufferView": 2,
      "componentType": 5123,
      "count": 516,
      "type": "SCALAR",
      "byteOffset": 31446
    },
    {
      "bufferView": 2,
      "componentType": 5123,
      "count": 822,
      "type": "SCALAR",
      "byteOffset": 32478
    }
  ],
  "bufferViews": [
    {
      "buffer": 0,
      "byteLength": 82668,
      "target": 34962,
      "byteStride": 12
    },
    {
      "buffer": 0,
      "byteOffset": 82668,
      "byteLength": 82668,
      "target": 34962,
      "byteStride": 12
    },
    {
      "buffer": 0,
      "byteOffset": 165336,
      "byteLength": 34122,
      "target": 34963
    }
  ],
  "buffers": [
    {
      "uri": "data:application/octet-stream;base64,",
      "byteLength": 199458
    }
  ]
}